<svg width="980" height="560" viewBox="0 0 980 560" fill="none" xmlns="http://www.w3.org/2000/svg" role="img" aria-labelledby="title desc">
  <title id="title">Careercraft workflow illustration</title>
  <desc id="desc">A four-step product workflow: career quiz, path selection, guided learning with AI mentor and quiz, and progress planning.</desc>
  <defs>
    <linearGradient id="bg" x1="80" y1="40" x2="860" y2="520" gradientUnits="userSpaceOnUse">
      <stop stop-color="#0F1630"/>
      <stop offset="1" stop-color="#1E2747"/>
    </linearGradient>
    <linearGradient id="accentA" x1="0" y1="0" x2="1" y2="1">
      <stop stop-color="#A78BFA"/>
      <stop offset="1" stop-color="#818CF8"/>
    </linearGradient>
    <linearGradient id="accentB" x1="0" y1="0" x2="1" y2="1">
      <stop stop-color="#22D3EE"/>
      <stop offset="1" stop-color="#60A5FA"/>
    </linearGradient>
    <filter id="glow" x="-50%" y="-50%" width="200%" height="200%">
      <feGaussianBlur stdDeviation="6" result="b"/>
      <feMerge>
        <feMergeNode in="b"/>
        <feMergeNode in="SourceGraphic"/>
      </feMerge>
    </filter>
  </defs>

  <rect x="30" y="26" width="920" height="508" rx="26" fill="url(#bg)" stroke="#FFFFFF22"/>

  <text x="68" y="66" fill="#C9B9FF" font-family="Poppins, Segoe UI, sans-serif" font-size="14" font-weight="600">User Workflow (No Auth Step)</text>

  <rect x="68" y="96" width="200" height="168" rx="16" fill="#121B38" stroke="#FFFFFF25"/>
  <circle cx="96" cy="124" r="14" fill="url(#accentA)"/>
  <text x="91" y="129" fill="#0B1020" font-family="Poppins, Segoe UI, sans-serif" font-size="12" font-weight="700">1</text>
  <text x="118" y="130" fill="#EEF2FF" font-family="Poppins, Segoe UI, sans-serif" font-size="16" font-weight="600">Career Quiz</text>
  <rect x="88" y="146" width="160" height="20" rx="8" fill="#1B2548"/>
  <rect x="88" y="176" width="160" height="20" rx="8" fill="#1B2548"/>
  <rect x="88" y="206" width="120" height="26" rx="8" fill="url(#accentA)"/>
  <text x="108" y="223" fill="#0B1020" font-family="Poppins, Segoe UI, sans-serif" font-size="11" font-weight="700">MATCH ROLES</text>

  <rect x="292" y="96" width="200" height="168" rx="16" fill="#121B38" stroke="#FFFFFF25"/>
  <circle cx="320" cy="124" r="14" fill="url(#accentA)"/>
  <text x="315" y="129" fill="#0B1020" font-family="Poppins, Segoe UI, sans-serif" font-size="12" font-weight="700">2</text>
  <text x="342" y="130" fill="#EEF2FF" font-family="Poppins, Segoe UI, sans-serif" font-size="16" font-weight="600">Pick Path</text>
  <rect x="312" y="146" width="160" height="28" rx="9" fill="#1B2548"/>
  <text x="322" y="164" fill="#C7CFF0" font-family="Poppins, Segoe UI, sans-serif" font-size="11">Frontend Developer</text>
  <rect x="312" y="182" width="160" height="28" rx="9" fill="#1B2548"/>
  <text x="322" y="200" fill="#C7CFF0" font-family="Poppins, Segoe UI, sans-serif" font-size="11">DevOps Engineer</text>
  <rect x="312" y="218" width="132" height="26" rx="8" fill="url(#accentA)"/>
  <text x="330" y="235" fill="#0B1020" font-family="Poppins, Segoe UI, sans-serif" font-size="11" font-weight="700">START LEARN</text>

  <rect x="516" y="96" width="200" height="168" rx="16" fill="#121B38" stroke="#FFFFFF25"/>
  <circle cx="544" cy="124" r="14" fill="url(#accentA)"/>
  <text x="539" y="129" fill="#0B1020" font-family="Poppins, Segoe UI, sans-serif" font-size="12" font-weight="700">3</text>
  <text x="566" y="130" fill="#EEF2FF" font-family="Poppins, Segoe UI, sans-serif" font-size="16" font-weight="600">Learn + AI</text>
  <rect x="536" y="146" width="160" height="20" rx="8" fill="#1B2548"/>
  <text x="544" y="160" fill="#C7CFF0" font-family="Poppins, Segoe UI, sans-serif" font-size="10">Ask mentor doubts</text>
  <rect x="536" y="176" width="160" height="20" rx="8" fill="#1B2548"/>
  <text x="544" y="190" fill="#C7CFF0" font-family="Poppins, Segoe UI, sans-serif" font-size="10">Generate flashcards</text>
  <rect x="536" y="206" width="160" height="20" rx="8" fill="#1B2548"/>
  <text x="544" y="220" fill="#C7CFF0" font-family="Poppins, Segoe UI, sans-serif" font-size="10">Mark watched videos</text>
  <circle cx="684" cy="232" r="5" fill="#22D3EE"/>

  <rect x="740" y="96" width="172" height="168" rx="16" fill="#121B38" stroke="#FFFFFF25"/>
  <circle cx="768" cy="124" r="14" fill="url(#accentA)"/>
  <text x="763" y="129" fill="#0B1020" font-family="Poppins, Segoe UI, sans-serif" font-size="12" font-weight="700">4</text>
  <text x="790" y="130" fill="#EEF2FF" font-family="Poppins, Segoe UI, sans-serif" font-size="16" font-weight="600">Plan + Track</text>
  <rect x="760" y="146" width="132" height="24" rx="8" fill="#1B2548"/>
  <text x="768" y="162" fill="#C7CFF0" font-family="Poppins, Segoe UI, sans-serif" font-size="10">Weekly planner</text>
  <rect x="760" y="176" width="132" height="24" rx="8" fill="#1B2548"/>
  <text x="768" y="192" fill="#C7CFF0" font-family="Poppins, Segoe UI, sans-serif" font-size="10">Skill gap review</text>
  <rect x="760" y="206" width="132" height="24" rx="8" fill="#1B2548"/>
  <text x="768" y="222" fill="#C7CFF0" font-family="Poppins, Segoe UI, sans-serif" font-size="10">Progress prediction</text>

  <rect x="70" y="292" width="840" height="208" rx="18" fill="#121B38" stroke="#FFFFFF25"/>
  <text x="92" y="326" fill="#EEF2FF" font-family="Poppins, Segoe UI, sans-serif" font-size="19" font-weight="600">Continuous Improvement Loop</text>

  <rect x="92" y="344" width="798" height="16" rx="8" fill="#2D3768"/>
  <rect x="92" y="344" width="526" height="16" rx="8" fill="url(#accentA)"/>
  <text x="92" y="384" fill="#C7CFF0" font-family="Poppins, Segoe UI, sans-serif" font-size="12">Current Path Progress: 66%</text>

  <rect x="92" y="402" width="184" height="72" rx="12" fill="#1B2548"/>
  <text x="104" y="426" fill="#DCE3FF" font-family="Poppins, Segoe UI, sans-serif" font-size="12">Career Match Refresh</text>
  <text x="104" y="445" fill="#AAB4D6" font-family="Poppins, Segoe UI, sans-serif" font-size="11">Adjust role focus</text>

  <rect x="292" y="402" width="184" height="72" rx="12" fill="#1B2548"/>
  <text x="304" y="426" fill="#DCE3FF" font-family="Poppins, Segoe UI, sans-serif" font-size="12">AI Path Generator</text>
  <text x="304" y="445" fill="#AAB4D6" font-family="Poppins, Segoe UI, sans-serif" font-size="11">Re-plan by availability</text>

  <rect x="492" y="402" width="184" height="72" rx="12" fill="#1B2548"/>
  <text x="504" y="426" fill="#DCE3FF" font-family="Poppins, Segoe UI, sans-serif" font-size="12">Mentor + Quiz</text>
  <text x="504" y="445" fill="#AAB4D6" font-family="Poppins, Segoe UI, sans-serif" font-size="11">Learn and validate</text>

  <rect x="692" y="402" width="184" height="72" rx="12" fill="#1B2548"/>
  <text x="704" y="426" fill="#DCE3FF" font-family="Poppins, Segoe UI, sans-serif" font-size="12">Study Planner</text>
  <text x="704" y="445" fill="#AAB4D6" font-family="Poppins, Segoe UI, sans-serif" font-size="11">Track weekly consistency</text>
  <circle cx="862" cy="418" r="8" fill="#22D3EE" filter="url(#glow)"/>

  <path d="M268 180C280 180 280 180 292 180" stroke="url(#accentB)" stroke-width="3" stroke-linecap="round"/>
  <path d="M492 180C504 180 504 180 516 180" stroke="url(#accentB)" stroke-width="3" stroke-linecap="round"/>
  <path d="M716 180C728 180 728 180 740 180" stroke="url(#accentB)" stroke-width="3" stroke-linecap="round"/>
</svg>
